<?xml version="1.0" standalone="no"?>
<!DOCTYPE svg PUBLIC "-//W3C//DTD SVG 20010904//EN"
 "http://www.w3.org/TR/2001/REC-SVG-20010904/DTD/svg10.dtd">
<svg version="1.0" xmlns="http://www.w3.org/2000/svg"
 width="512.000000pt" height="512.000000pt" viewBox="0 0 512.000000 512.000000"
 preserveAspectRatio="xMidYMid meet">
<metadata>
Created by potrace 1.11, written by Peter Selinger 2001-2013
</metadata>
<g transform="translate(0.000000,512.000000) scale(0.100000,-0.100000)"
fill="#000000" stroke="none">
<path d="M80 4240 l0 -320 101 0 c116 0 166 -12 226 -52 79 -53 73 55 73
-1313 0 -1357 5 -1256 -64 -1302 -60 -39 -121 -53 -231 -53 l-105 0 0 -320 0
-320 760 0 760 0 0 320 0 320 -200 0 -200 0 0 1280 c0 729 4 1280 9 1280 8 0
26 -60 95 -325 38 -147 389 -1461 562 -2105 195 -727 204 -760 204 -765 0 -3
153 -5 340 -5 l339 0 15 53 c9 28 56 203 106 387 49 184 99 367 109 405 19 65
107 393 426 1568 69 257 128 478 131 490 2 12 17 67 33 122 l30 100 0 -1242 1
-1243 -160 0 -160 0 0 -320 0 -320 880 0 880 0 0 320 0 320 -103 0 c-113 0
-178 15 -233 52 -70 48 -65 -52 -62 1322 l3 1238 43 37 c64 56 118 71 245 71
l107 0 0 320 0 320 -928 0 -928 0 -78 -297 c-43 -164 -81 -309 -86 -323 -7
-22 -86 -319 -95 -360 -2 -8 -24 -91 -50 -185 -25 -93 -105 -392 -177 -662
-73 -271 -135 -493 -138 -493 -3 0 -25 73 -49 163 -24 89 -55 203 -68 252 -13
50 -26 97 -28 105 -2 9 -26 101 -54 205 -61 230 -109 411 -161 610 -54 209
-114 437 -146 555 -42 156 -97 369 -103 395 l-7 30 -932 3 -932 2 0 -320z"/>
</g>
</svg>
